<svg xmlns="http://www.w3.org/2000/svg" width="1173" height="1413" viewBox="0 0 1173 1413">
  <defs>
    <style>
      .cls-1 {
        fill: #fff;
        fill-rule: evenodd;
      }
    </style>
  </defs>
  <path id="Color_Fill_2" data-name="Color Fill 2" class="cls-1" d="M0,241L2,0,1173,3V231H1032V117l-377,3v96c359.37-37.385,552.32,360.711,198,603,0,0,217.34,65.791,206,312-22.12,339.98-281,278-281,278l-585,3V1307h78v-99S69.762,1233.92,57,980C74.257,678.037,277,737,277,737l-6-362s-40.148,6.222-56,30c-17.1,25.651-8,75-8,75L64,476s-1-67,6-120,99-96,153-116,291-15,291-15l-1-102-369,2V242ZM656,363s255,14,255,180S658,731,658,731Zm8,532s252-28,258,200-212,204-212,204l-292,6v-96H790l-2-146H666ZM520,369l2,362-118,2-4-366ZM402,881l126,8v164l-122,2Zm-130,6s-80-16-80,94,84,82,84,82Z"/>
</svg>
